<?xml version="1.0" encoding="UTF-8" standalone="no"?>
<svg
   xmlns:dc="http://purl.org/dc/elements/1.1/"
   xmlns:cc="http://creativecommons.org/ns#"
   xmlns:rdf="http://www.w3.org/1999/02/22-rdf-syntax-ns#"
   xmlns:svg="http://www.w3.org/2000/svg"
   xmlns="http://www.w3.org/2000/svg"
   xmlns:sodipodi="http://sodipodi.sourceforge.net/DTD/sodipodi-0.dtd"
   xmlns:inkscape="http://www.inkscape.org/namespaces/inkscape"
   width="31mm"
   height="31mm"
   viewBox="0 0 31 31"
   version="1.1"
   id="svg8"
   inkscape:version="1.0.2-2 (e86c870879, 2021-01-15)"
   sodipodi:docname="logo.svg">
  <defs
     id="defs2">
    <inkscape:path-effect
       effect="fillet_chamfer"
       id="path-effect1077"
       is_visible="true"
       lpeversion="1"
       satellites_param="F,0,0,1,0,2.6458333,0,1 @ F,0,0,1,0,2.6458333,0,1 @ F,0,0,1,0,2.6458333,0,1 @ F,0,0,1,0,2.6458333,0,1"
       unit="px"
       method="auto"
       mode="F"
       radius="10"
       chamfer_steps="1"
       flexible="false"
       use_knot_distance="true"
       apply_no_radius="true"
       apply_with_radius="true"
       only_selected="false"
       hide_knots="false" />
  </defs>
  <sodipodi:namedview
     id="base"
     pagecolor="#ffffff"
     bordercolor="#666666"
     borderopacity="1.0"
     inkscape:pageopacity="0.0"
     inkscape:pageshadow="2"
     inkscape:zoom="9.7316011"
     inkscape:cx="74.653633"
     inkscape:cy="34.657789"
     inkscape:document-units="mm"
     inkscape:current-layer="layer1"
     inkscape:document-rotation="0"
     showgrid="false"
     inkscape:window-width="1920"
     inkscape:window-height="991"
     inkscape:window-x="-9"
     inkscape:window-y="-9"
     inkscape:window-maximized="1"
     fit-margin-top="0"
     fit-margin-left="0"
     fit-margin-right="0"
     fit-margin-bottom="0" />
  <metadata
     id="metadata5">
    <rdf:RDF>
      <cc:Work
         rdf:about="">
        <dc:format>image/svg+xml</dc:format>
        <dc:type
           rdf:resource="http://purl.org/dc/dcmitype/StillImage" />
        <dc:title />
      </cc:Work>
    </rdf:RDF>
  </metadata>
  <g
     inkscape:label="Ebene 1"
     inkscape:groupmode="layer"
     id="layer1"
     transform="translate(0.19001973,0.19001973)">
    <path
       style="fill:#ffffff;stroke:#502850;stroke-width:2;stroke-miterlimit:4;stroke-dasharray:none;stroke-opacity:1"
       id="rect1075"
       width="28.340212"
       height="28.340212"
       x="1.1627134"
       y="0.88304031"
       sodipodi:type="rect"
       d="m 3.8085467,0.88304031 23.0485453,0 A 2.6458333,2.6458333 45 0 1 29.502925,3.5288736 V 26.577419 a 2.6458333,2.6458333 135 0 1 -2.645833,2.645833 H 3.8085467 A 2.6458333,2.6458333 45 0 1 1.1627134,26.577419 V 3.5288736 A 2.6458333,2.6458333 135 0 1 3.8085467,0.88304031 Z"
       inkscape:path-effect="#path-effect1077" />
    <ellipse
       style="fill:#502850;fill-opacity:1;stroke:none;stroke-width:0.0268113;stroke-opacity:1"
       id="path12"
       cx="-0.32253978"
       cy="18.312889"
       rx="1.8621652"
       ry="1.3896949"
       transform="rotate(-33.291275)" />
    <path
       style="fill:none;stroke:#502850;stroke-width:1.5;stroke-linecap:butt;stroke-linejoin:miter;stroke-miterlimit:4;stroke-dasharray:none;stroke-opacity:1"
       d="M 10.793607,15.200099 V 5.5340587"
       id="path16" />
    <path
       style="fill:none;stroke:#502850;stroke-width:0.4;stroke-linecap:butt;stroke-linejoin:miter;stroke-miterlimit:4;stroke-dasharray:none;stroke-opacity:1"
       d="M 24.537367,19.759528 5.5278216,19.726119"
       id="path16-5"
       sodipodi:nodetypes="cc" />
    <path
       style="fill:none;stroke:#502850;stroke-width:0.4;stroke-linecap:butt;stroke-linejoin:miter;stroke-miterlimit:4;stroke-dasharray:none;stroke-opacity:1"
       d="M 24.537367,16.915007 5.5278216,16.881598"
       id="path16-5-7"
       sodipodi:nodetypes="cc" />
    <path
       style="fill:none;stroke:#502850;stroke-width:0.4;stroke-linecap:butt;stroke-linejoin:miter;stroke-miterlimit:4;stroke-dasharray:none;stroke-opacity:1"
       d="M 24.537367,14.070486 5.5278216,14.037077"
       id="path16-5-7-0"
       sodipodi:nodetypes="cc" />
    <path
       style="fill:none;stroke:#502850;stroke-width:0.4;stroke-linecap:butt;stroke-linejoin:miter;stroke-miterlimit:4;stroke-dasharray:none;stroke-opacity:1"
       d="M 24.537367,11.225965 5.5278216,11.192556"
       id="path16-5-7-09"
       sodipodi:nodetypes="cc" />
    <path
       style="fill:none;stroke:#502850;stroke-width:0.4;stroke-linecap:butt;stroke-linejoin:miter;stroke-miterlimit:4;stroke-dasharray:none;stroke-opacity:1"
       d="M 24.537367,8.3814437 5.5278216,8.3480347"
       id="path16-5-7-7"
       sodipodi:nodetypes="cc" />
    <ellipse
       style="fill:#502850;fill-opacity:1;stroke:none;stroke-width:0.0268113;stroke-opacity:1"
       id="path12-7"
       cx="4.8059788"
       cy="19.631752"
       rx="1.8621652"
       ry="1.3896949"
       transform="rotate(-33.291275)" />
    <path
       style="fill:none;stroke:#502850;stroke-width:1.5;stroke-linecap:butt;stroke-linejoin:miter;stroke-miterlimit:4;stroke-dasharray:none;stroke-opacity:1"
       d="M 15.804406,13.487502 V 4.0143667"
       id="path16-6" />
    <ellipse
       style="fill:#502850;fill-opacity:1;stroke:none;stroke-width:0.0268113;stroke-opacity:1"
       id="path12-7-8"
       cx="9.1378756"
       cy="21.089527"
       rx="1.8621652"
       ry="1.3896949"
       transform="rotate(-33.291275)" />
    <path
       style="fill:none;stroke:#502850;stroke-width:1.5;stroke-linecap:butt;stroke-linejoin:miter;stroke-miterlimit:4;stroke-dasharray:none;stroke-opacity:1"
       d="M 20.201778,12.403266 V 2.6928017"
       id="path16-6-9" />
    <path
       id="rect848"
       style="fill:#502850;fill-opacity:1;stroke:none;stroke-width:0.1;stroke-miterlimit:4;stroke-dasharray:none"
       d="m 10.080382,5.5263887 10.878876,-3.67557 -0.0024,3.528884 -10.864663,3.518517 z"
       sodipodi:nodetypes="ccccc" />
    <g
       aria-label="ABc"
       id="text114-0"
       style="font-style:normal;font-weight:normal;font-size:9.87778px;line-height:1.25;font-family:sans-serif;fill:#502850;fill-opacity:1;stroke:none;stroke-width:0.264583;stroke-opacity:1"
       transform="translate(-1.478014,-0.44462128)">
      <path
         d="M 14.197409,27.863501 H 12.64436 L 12.026998,26.257397 H 9.2006413 L 8.617042,27.863501 H 7.1025777 L 9.8565876,20.792785 H 11.366229 Z M 11.5688,25.066082 10.594527,22.442297 9.6395466,25.066082 Z"
         style="font-style:normal;font-variant:normal;font-weight:bold;font-stretch:normal;font-size:9.87778px;font-family:Arial;-inkscape-font-specification:'Arial Bold';fill:#502850;fill-opacity:1;stroke:none;stroke-width:0.264583;stroke-opacity:1"
         id="path1502" />
      <path
         d="m 14.959464,20.792785 h 2.826357 q 0.839225,0 1.249192,0.07235 0.41479,0.06752 0.73794,0.289388 0.327973,0.221864 0.545014,0.593246 0.217041,0.366558 0.217041,0.824756 0,0.496783 -0.270096,0.911572 -0.265272,0.41479 -0.72347,0.622185 0.6463,0.188102 0.993566,0.641477 0.347266,0.453374 0.347266,1.065912 0,0.482314 -0.226688,0.940512 -0.221864,0.453374 -0.612538,0.728293 -0.385851,0.270095 -0.954981,0.332796 -0.356912,0.03858 -1.721859,0.04823 h -2.406744 z m 1.427648,1.176845 v 1.635043 H 17.3228 q 0.834402,0 1.036974,-0.02412 0.366558,-0.04341 0.573953,-0.250803 0.212218,-0.212218 0.212218,-0.554661 0,-0.327973 -0.183279,-0.530544 -0.178456,-0.207395 -0.535368,-0.250803 -0.212218,-0.02412 -1.220253,-0.02412 z m 0,2.811887 v 1.890669 h 1.321539 q 0.771701,0 0.979096,-0.04341 0.318327,-0.05788 0.516076,-0.279742 0.202571,-0.226687 0.202571,-0.602892 0,-0.318326 -0.15434,-0.540191 -0.15434,-0.221864 -0.448552,-0.32315 -0.289388,-0.101286 -1.263661,-0.101286 z"
         style="font-style:normal;font-variant:normal;font-weight:bold;font-stretch:normal;font-size:9.87778px;font-family:Arial;-inkscape-font-specification:'Arial Bold';fill:#502850;fill-opacity:1;stroke:none;stroke-width:0.264583;stroke-opacity:1"
         id="path1504" />
      <path
         d="m 26.544634,24.255796 -1.336009,0.241157 q -0.06752,-0.400321 -0.30868,-0.602892 -0.236334,-0.202572 -0.617362,-0.202572 -0.506429,0 -0.810286,0.352089 -0.299035,0.347266 -0.299035,1.167198 0,0.911573 0.303858,1.287777 0.308681,0.376205 0.824756,0.376205 0.385851,0 0.631831,-0.217041 0.245979,-0.221864 0.347265,-0.757232 l 1.331186,0.226687 q -0.207395,0.916396 -0.795818,1.38424 -0.588422,0.467844 -1.577165,0.467844 -1.12379,0 -1.794206,-0.709001 -0.665593,-0.709001 -0.665593,-1.963016 0,-1.268484 0.670416,-1.972662 0.670416,-0.709001 1.813499,-0.709001 0.935688,0 1.485525,0.405144 0.554661,0.40032 0.795818,1.225076 z"
         style="font-style:normal;font-variant:normal;font-weight:bold;font-stretch:normal;font-size:9.87778px;font-family:Arial;-inkscape-font-specification:'Arial Bold';fill:#502850;fill-opacity:1;stroke:none;stroke-width:0.264583;stroke-opacity:1"
         id="path1506" />
    </g>
  </g>
</svg>
